<mxfile host="app.diagrams.net" agent="Mozilla/5.0 (Windows NT 10.0; Win64; x64) AppleWebKit/537.36 (KHTML, like Gecko) Chrome/136.0.0.0 Safari/537.36" version="27.0.9">
  <diagram name="Página-1" id="0et1rjZMFLMLWJKZB2Ur">
    <mxGraphModel grid="1" page="1" gridSize="10" guides="1" tooltips="1" connect="1" arrows="1" fold="1" pageScale="1" pageWidth="827" pageHeight="1169" math="0" shadow="0">
      <root>
        <mxCell id="0" />
        <mxCell id="1" parent="0" />
        <mxCell id="obcNwikdx_ZnkEg2HeXp-1" value="validate_table_id(tid)" style="shape=trapezoid;perimeter=trapezoidPerimeter;fixedSize=1;strokeWidth=2;whiteSpace=wrap;" vertex="1" parent="1">
          <mxGeometry x="150" y="70" width="211" height="39" as="geometry" />
        </mxCell>
        <mxCell id="obcNwikdx_ZnkEg2HeXp-2" value="reserved_ids = {0, 253, 254, 255}" style="whiteSpace=wrap;strokeWidth=2;" vertex="1" parent="1">
          <mxGeometry x="125.5" y="150" width="260" height="78" as="geometry" />
        </mxCell>
        <mxCell id="obcNwikdx_ZnkEg2HeXp-3" value="¿tid en reserved_ids?" style="rhombus;strokeWidth=2;whiteSpace=wrap;" vertex="1" parent="1">
          <mxGeometry x="154" y="277" width="203" height="203" as="geometry" />
        </mxCell>
        <mxCell id="obcNwikdx_ZnkEg2HeXp-4" value="Retornar (válido)" style="whiteSpace=wrap;strokeWidth=2;" vertex="1" parent="1">
          <mxGeometry x="30" y="530" width="182" height="54" as="geometry" />
        </mxCell>
        <mxCell id="obcNwikdx_ZnkEg2HeXp-5" value="Lanzar ValueError:&#xa;        &#39;Table ID es valor reservado&#39;" style="whiteSpace=wrap;strokeWidth=2;" vertex="1" parent="1">
          <mxGeometry x="260" y="530" width="258" height="78" as="geometry" />
        </mxCell>
        <mxCell id="obcNwikdx_ZnkEg2HeXp-6" value="" style="curved=1;startArrow=none;endArrow=block;exitX=0.5;exitY=1;entryX=0.5;entryY=-0.01;rounded=0;exitDx=0;exitDy=0;" edge="1" parent="1" source="obcNwikdx_ZnkEg2HeXp-1" target="obcNwikdx_ZnkEg2HeXp-2">
          <mxGeometry relative="1" as="geometry">
            <Array as="points" />
          </mxGeometry>
        </mxCell>
        <mxCell id="obcNwikdx_ZnkEg2HeXp-7" value="" style="curved=1;startArrow=none;endArrow=block;exitX=0.5;exitY=0.99;entryX=0.5;entryY=0;rounded=0;" edge="1" parent="1" source="obcNwikdx_ZnkEg2HeXp-2" target="obcNwikdx_ZnkEg2HeXp-3">
          <mxGeometry relative="1" as="geometry">
            <Array as="points" />
          </mxGeometry>
        </mxCell>
        <mxCell id="obcNwikdx_ZnkEg2HeXp-8" value="No" style="curved=1;startArrow=none;endArrow=block;exitX=0.05;exitY=1;entryX=0.5;entryY=0;rounded=0;" edge="1" parent="1" source="obcNwikdx_ZnkEg2HeXp-3" target="obcNwikdx_ZnkEg2HeXp-4">
          <mxGeometry relative="1" as="geometry">
            <Array as="points">
              <mxPoint x="130" y="490" />
            </Array>
          </mxGeometry>
        </mxCell>
        <mxCell id="obcNwikdx_ZnkEg2HeXp-9" value="Sí" style="curved=1;startArrow=none;endArrow=block;exitX=0.95;exitY=1;entryX=0.5;entryY=0;rounded=0;" edge="1" parent="1" source="obcNwikdx_ZnkEg2HeXp-3" target="obcNwikdx_ZnkEg2HeXp-5">
          <mxGeometry relative="1" as="geometry">
            <Array as="points">
              <mxPoint x="370" y="480" />
            </Array>
          </mxGeometry>
        </mxCell>
      </root>
    </mxGraphModel>
  </diagram>
</mxfile>
